<svg width="264" height="84" viewBox="0 0 264 84" fill="none" xmlns="http://www.w3.org/2000/svg">
<path d="M47.8309 42C55.0451 38.3234 60 30.8337 60 22.2094C59.9956 9.96126 50.0198 0 37.7538 0H12.1119V4.8377H37.7538C47.3464 4.8377 55.1508 12.6308 55.1508 22.2094C55.1508 31.7881 47.3464 39.5812 37.7538 39.5812H1.98194V44.4188H37.7538C47.3464 44.4188 55.1508 52.2119 55.1508 61.7906C55.1508 71.3692 47.3464 79.1623 37.7538 79.1623H12.1119V84H37.7538C50.0198 84 59.9956 74.0387 59.9956 61.7906C59.9956 53.1663 55.0407 45.6767 47.8265 42H47.8309Z" fill="white"/>
<path d="M12.1119 14.9529H37.7538C41.7617 14.9529 45.0209 18.2073 45.0209 22.2094C45.0209 26.2115 41.7617 29.466 37.7538 29.466H14.5342V22.2094H9.6895V34.3037H37.7538C44.4307 34.3037 49.8657 28.8766 49.8657 22.2094C49.8657 15.5422 44.4307 10.1152 37.7538 10.1152H12.1119C5.43493 10.1152 0 15.5422 0 22.2094H4.84475C4.84475 18.2073 8.10394 14.9529 12.1119 14.9529Z" fill="white"/>
<path d="M37.7538 73.8848C44.4307 73.8848 49.8657 68.4578 49.8657 61.7906C49.8657 55.1234 44.4307 49.6963 37.7538 49.6963H9.6895V61.7906H14.5342V54.534H37.7538C41.7617 54.534 45.0209 57.7885 45.0209 61.7906C45.0209 65.7927 41.7617 69.0471 37.7538 69.0471H12.1119C8.10394 69.0471 4.84475 65.7927 4.84475 61.7906H0C0 68.4578 5.43493 73.8848 12.1119 73.8848H37.7538Z" fill="white"/>
<path d="M79.196 51V47.984H81.588V35.816H79.196V32.8H88.556C89.6653 32.8 90.6273 32.9907 91.442 33.372C92.274 33.736 92.9153 34.2647 93.366 34.958C93.834 35.634 94.068 36.4487 94.068 37.402V37.662C94.068 38.494 93.912 39.1787 93.6 39.716C93.288 40.236 92.9153 40.6433 92.482 40.938C92.066 41.2153 91.6673 41.4147 91.286 41.536V42.004C91.6673 42.108 92.0833 42.3073 92.534 42.602C92.9847 42.8793 93.366 43.2867 93.678 43.824C94.0073 44.3613 94.172 45.0633 94.172 45.93V46.19C94.172 47.1953 93.938 48.062 93.47 48.79C93.002 49.5007 92.352 50.0467 91.52 50.428C90.7053 50.8093 89.752 51 88.66 51H79.196ZM85.02 47.88H88.244C88.9893 47.88 89.5873 47.698 90.038 47.334C90.506 46.97 90.74 46.45 90.74 45.774V45.514C90.74 44.838 90.5147 44.318 90.064 43.954C89.6133 43.59 89.0067 43.408 88.244 43.408H85.02V47.88ZM85.02 40.288H88.192C88.9027 40.288 89.4833 40.106 89.934 39.742C90.402 39.378 90.636 38.8753 90.636 38.234V37.974C90.636 37.3153 90.4107 36.8127 89.96 36.466C89.5093 36.102 88.92 35.92 88.192 35.92H85.02V40.288ZM96.9816 51V32.8H104.886C106.03 32.8 107.026 32.9993 107.876 33.398C108.725 33.7967 109.384 34.36 109.852 35.088C110.32 35.816 110.554 36.674 110.554 37.662V37.974C110.554 39.066 110.294 39.95 109.774 40.626C109.254 41.302 108.612 41.796 107.85 42.108V42.576C108.543 42.6107 109.08 42.8533 109.462 43.304C109.843 43.7373 110.034 44.318 110.034 45.046V51H106.602V45.54C106.602 45.124 106.489 44.786 106.264 44.526C106.056 44.266 105.7 44.136 105.198 44.136H100.414V51H96.9816ZM100.414 41.016H104.522C105.336 41.016 105.969 40.7993 106.42 40.366C106.888 39.9153 107.122 39.326 107.122 38.598V38.338C107.122 37.61 106.896 37.0293 106.446 36.596C105.995 36.1453 105.354 35.92 104.522 35.92H100.414V41.016ZM113.409 51V32.8H116.841V51H113.409ZM126.557 51.364C125.309 51.364 124.173 51.0867 123.151 50.532C122.145 49.96 121.339 49.1367 120.733 48.062C120.143 46.97 119.849 45.644 119.849 44.084V39.716C119.849 37.376 120.507 35.582 121.825 34.334C123.142 33.0687 124.927 32.436 127.181 32.436C129.417 32.436 131.141 33.034 132.355 34.23C133.585 35.4087 134.201 37.012 134.201 39.04V39.144H130.821V38.936C130.821 38.2947 130.682 37.714 130.405 37.194C130.145 36.674 129.746 36.2667 129.209 35.972C128.671 35.66 127.995 35.504 127.181 35.504C125.967 35.504 125.014 35.8767 124.321 36.622C123.627 37.3673 123.281 38.3813 123.281 39.664V44.136C123.281 45.4013 123.627 46.424 124.321 47.204C125.014 47.9667 125.985 48.348 127.233 48.348C128.481 48.348 129.391 48.0187 129.963 47.36C130.535 46.7013 130.821 45.8693 130.821 44.864V44.604H126.505V41.692H134.201V51H131.029V49.258H130.561C130.439 49.5527 130.24 49.8647 129.963 50.194C129.703 50.5233 129.304 50.8007 128.767 51.026C128.229 51.2513 127.493 51.364 126.557 51.364ZM137.48 51V32.8H140.912V40.314H147.672V32.8H151.104V51H147.672V43.434H140.912V51H137.48ZM158.754 51V35.92H153.45V32.8H167.49V35.92H162.186V51H158.754ZM175.122 51V47.984H177.514V35.816H175.122V32.8H184.482C185.591 32.8 186.553 32.9907 187.368 33.372C188.2 33.736 188.841 34.2647 189.292 34.958C189.76 35.634 189.994 36.4487 189.994 37.402V37.662C189.994 38.494 189.838 39.1787 189.526 39.716C189.214 40.236 188.841 40.6433 188.408 40.938C187.992 41.2153 187.593 41.4147 187.212 41.536V42.004C187.593 42.108 188.009 42.3073 188.46 42.602C188.91 42.8793 189.292 43.2867 189.604 43.824C189.933 44.3613 190.098 45.0633 190.098 45.93V46.19C190.098 47.1953 189.864 48.062 189.396 48.79C188.928 49.5007 188.278 50.0467 187.446 50.428C186.631 50.8093 185.678 51 184.586 51H175.122ZM180.946 47.88H184.17C184.915 47.88 185.513 47.698 185.964 47.334C186.432 46.97 186.666 46.45 186.666 45.774V45.514C186.666 44.838 186.44 44.318 185.99 43.954C185.539 43.59 184.932 43.408 184.17 43.408H180.946V47.88ZM180.946 40.288H184.118C184.828 40.288 185.409 40.106 185.86 39.742C186.328 39.378 186.562 38.8753 186.562 38.234V37.974C186.562 37.3153 186.336 36.8127 185.886 36.466C185.435 36.102 184.846 35.92 184.118 35.92H180.946V40.288ZM192.907 51V32.8H200.811C201.955 32.8 202.952 32.9993 203.801 33.398C204.651 33.7967 205.309 34.36 205.777 35.088C206.245 35.816 206.479 36.674 206.479 37.662V37.974C206.479 39.066 206.219 39.95 205.699 40.626C205.179 41.302 204.538 41.796 203.775 42.108V42.576C204.469 42.6107 205.006 42.8533 205.387 43.304C205.769 43.7373 205.959 44.318 205.959 45.046V51H202.527V45.54C202.527 45.124 202.415 44.786 202.189 44.526C201.981 44.266 201.626 44.136 201.123 44.136H196.339V51H192.907ZM196.339 41.016H200.447C201.262 41.016 201.895 40.7993 202.345 40.366C202.813 39.9153 203.047 39.326 203.047 38.598V38.338C203.047 37.61 202.822 37.0293 202.371 36.596C201.921 36.1453 201.279 35.92 200.447 35.92H196.339V41.016ZM209.335 51V32.8H212.767V51H209.335ZM215.671 51V47.984H218.063V35.816H215.671V32.8H223.159C225.603 32.8 227.457 33.424 228.723 34.672C230.005 35.9027 230.647 37.74 230.647 40.184V43.616C230.647 46.06 230.005 47.906 228.723 49.154C227.457 50.3847 225.603 51 223.159 51H215.671ZM221.495 47.88H223.211C224.597 47.88 225.611 47.516 226.253 46.788C226.894 46.06 227.215 45.0373 227.215 43.72V40.08C227.215 38.7453 226.894 37.7227 226.253 37.012C225.611 36.284 224.597 35.92 223.211 35.92H221.495V47.88ZM239.799 51.364C238.551 51.364 237.416 51.0867 236.393 50.532C235.388 49.96 234.582 49.1367 233.975 48.062C233.386 46.97 233.091 45.644 233.091 44.084V39.716C233.091 37.376 233.75 35.582 235.067 34.334C236.384 33.0687 238.17 32.436 240.423 32.436C242.659 32.436 244.384 33.034 245.597 34.23C246.828 35.4087 247.443 37.012 247.443 39.04V39.144H244.063V38.936C244.063 38.2947 243.924 37.714 243.647 37.194C243.387 36.674 242.988 36.2667 242.451 35.972C241.914 35.66 241.238 35.504 240.423 35.504C239.21 35.504 238.256 35.8767 237.563 36.622C236.87 37.3673 236.523 38.3813 236.523 39.664V44.136C236.523 45.4013 236.87 46.424 237.563 47.204C238.256 47.9667 239.227 48.348 240.475 48.348C241.723 48.348 242.633 48.0187 243.205 47.36C243.777 46.7013 244.063 45.8693 244.063 44.864V44.604H239.747V41.692H247.443V51H244.271V49.258H243.803C243.682 49.5527 243.482 49.8647 243.205 50.194C242.945 50.5233 242.546 50.8007 242.009 51.026C241.472 51.2513 240.735 51.364 239.799 51.364ZM250.722 51V32.8H262.422V35.92H254.154V40.262H261.694V43.382H254.154V47.88H262.578V51H250.722Z" fill="white"/>
</svg>
