<svg width="580" height="906" viewBox="0 0 580 906" fill="none" xmlns="http://www.w3.org/2000/svg">
<path d="M1121.36 529.199C1081.27 727.304 908.507 969.433 720.538 888.723C546.26 813.892 650.049 683.28 510.454 567.352C370.859 451.424 181.938 630.141 55.7339 482.241C-17.5186 396.395 -18.5553 250.017 69.2098 130.971C156.975 11.9241 333.542 -79.7915 615.496 -56.3118C881.835 -34.1334 1014.12 83.4733 1076.91 209.92C1139.7 336.366 1133 471.655 1121.36 529.199Z" stroke="#478B45" stroke-opacity="0.15" stroke-width="2.10293" stroke-miterlimit="10"/>
<path d="M622.864 -38.34C867.178 -18.3789 989.413 88.9438 1047.84 205.026C1105.7 320.438 1100.38 444.207 1090.05 498.167C1054.33 681.71 895.667 906.339 721.154 836.981C560.018 772.941 649.493 655.041 520.275 549.332C516.587 546.335 512.865 543.547 509.11 540.954C407.448 470.663 281.988 545.051 178.653 514.332C150.602 505.993 124.113 490.051 100.318 461.482C31.8741 379.303 31.9298 243.691 113.727 134.162C196.046 24.1899 361.245 -59.4712 622.864 -38.34Z" stroke="#478B45" stroke-opacity="0.15" stroke-width="2.10293" stroke-miterlimit="10"/>
<path d="M630.23 -20.3674C852.518 -2.62447 964.703 94.4153 1018.76 200.133C1071.69 304.509 1067.92 416.789 1058.74 467.135C1027.91 636.226 882.864 843.236 721.768 785.239C573.808 731.973 649.246 626.362 530.094 531.311C526.66 528.572 523.179 526.04 519.679 523.667C425.218 459.456 310.178 522.347 216.253 491.086C190.606 482.55 166.412 467.275 144.901 440.722C81.2751 362.184 82.4124 237.363 158.243 137.352C235.115 36.4558 388.945 -39.15 630.23 -20.3674Z" stroke="#478B45" stroke-opacity="0.15" stroke-width="2.10293" stroke-miterlimit="10"/>
<path d="M637.598 -2.39513C837.861 13.1305 940.245 99.7393 989.684 195.24C1037.93 288.437 1035.38 389.351 1027.44 436.103C1001.19 590.668 870.111 780.113 722.382 733.498C587.645 690.982 648.815 597.928 539.913 513.292C536.728 510.817 533.493 508.534 530.248 506.38C442.989 448.249 338.362 499.616 253.854 467.841C230.611 459.101 208.723 444.483 189.483 419.963C130.693 345.034 132.895 231.038 202.759 140.543C274.185 48.7212 416.647 -18.8302 637.598 -2.39513Z" stroke="#478B45" stroke-opacity="0.15" stroke-width="2.10293" stroke-miterlimit="10"/>
<path d="M644.965 15.5786C823.229 28.4923 915.608 105.167 960.609 190.348C1003.99 272.469 1002.82 361.911 996.133 405.074C974.432 545.096 857.425 716.96 722.999 681.758C601.54 649.952 648.36 569.523 549.734 495.273C546.797 493.063 543.809 491.029 540.818 489.095C460.761 437.045 366.54 476.847 291.457 444.598C270.613 435.644 251.051 421.676 234.069 399.206C180.136 327.845 183.185 224.538 247.278 143.736C313.055 60.8072 444.378 1.04769 644.965 15.5786Z" stroke="#478B45" stroke-opacity="0.15" stroke-width="2.10293" stroke-miterlimit="10"/>
<path d="M652.334 33.5516C808.574 44.1843 890.962 110.596 931.535 185.455C970.042 256.504 970.256 334.464 964.828 374.043C947.622 499.506 844.82 653.745 723.614 630.017C615.506 608.853 647.87 541.149 559.555 477.253C556.865 475.308 554.124 473.523 551.388 471.808C478.532 425.838 394.713 454.025 329.059 421.352C310.612 412.171 293.396 398.844 278.653 378.446C229.614 310.603 233.641 218.181 291.795 146.927C352.097 73.0398 472.084 21.2849 652.334 33.5516Z" stroke="#478B45" stroke-opacity="0.15" stroke-width="2.10293" stroke-miterlimit="10"/>
<path d="M659.7 51.5242C793.914 59.9011 866.297 116.031 902.457 180.562C936.069 240.546 937.67 307.011 933.521 343.011C920.742 453.895 832.312 590.419 724.227 578.274C629.556 567.636 647.334 512.824 569.373 459.232C566.93 457.553 564.438 456.015 561.957 454.52C496.302 414.63 422.892 431.13 366.659 398.105C350.61 388.68 335.764 375.988 323.234 357.686C279.147 293.295 284.11 211.834 336.31 150.117C391.148 85.2812 499.784 41.5432 659.7 51.5242Z" stroke="#478B45" stroke-opacity="0.15" stroke-width="2.10293" stroke-miterlimit="10"/>
<path d="M667.068 69.4963C779.254 75.654 841.608 121.475 873.382 175.669C902.071 224.601 905.06 279.551 902.216 311.979C893.773 408.264 819.756 532.337 724.842 526.533C643.833 521.579 646.743 484.575 579.193 441.212C576.994 439.801 574.753 438.509 572.525 437.232C514.072 403.423 451.096 408.142 404.26 374.859C390.615 365.163 378.165 353.101 367.817 336.926C328.773 275.9 334.599 205.501 380.827 153.307C430.222 97.538 527.485 61.8347 667.068 69.4963Z" stroke="#478B45" stroke-opacity="0.15" stroke-width="2.10293" stroke-miterlimit="10"/>
<path d="M674.436 87.469C764.59 91.4619 816.876 126.944 844.307 170.776C868.03 208.681 872.409 252.085 870.912 280.948C866.676 362.616 807.572 463.001 725.459 474.791C657.894 484.492 646.078 456.439 589.014 423.193C587.058 422.053 585.069 421.004 583.096 419.946C531.845 392.216 479.366 385.039 441.862 351.614C430.641 341.613 420.612 330.184 412.402 316.167C378.558 258.388 385.117 199.195 425.345 156.498C469.323 109.82 555.18 82.1869 674.436 87.469Z" stroke="#478B45" stroke-opacity="0.15" stroke-width="2.10293" stroke-miterlimit="10"/>
<path d="M681.802 105.442C749.92 107.359 792.057 132.47 815.231 165.883C833.909 192.814 839.686 224.619 839.605 249.916C839.39 316.965 795.079 398.517 726.072 423.049C671.965 442.285 645.318 428.492 598.832 405.173C597.116 404.311 595.382 403.497 593.664 402.659C549.615 381.01 507.769 361.81 479.463 328.368C470.707 318.024 463.116 307.235 456.983 295.408C428.621 240.713 435.672 192.933 469.86 159.69C508.467 122.152 582.87 102.657 681.802 105.442Z" stroke="#478B45" stroke-opacity="0.15" stroke-width="2.10293" stroke-miterlimit="10"/>
<path d="M726.687 371.308C683.81 400.79 641.081 400.94 604.234 385.372C567.386 369.803 536.419 338.515 517.064 305.122C477.353 236.605 481.075 191.178 514.377 162.88C547.678 134.582 610.56 123.413 689.169 123.413C767.778 123.413 804.767 166.402 808.299 218.884C811.832 271.365 781.907 333.339 726.687 371.308Z" stroke="#478B45" stroke-opacity="0.15" stroke-width="2.10293" stroke-miterlimit="10"/>
</svg>
