<svg width="497" height="645" viewBox="0 0 497 645" fill="none" xmlns="http://www.w3.org/2000/svg">
<path d="M746.777 393.362C720.108 525.174 605.156 686.277 480.088 632.576C364.13 582.786 433.188 495.882 340.306 418.748C247.425 341.613 121.724 460.525 37.7528 362.118C-10.9867 304.999 -11.6764 207.605 46.7192 128.396C105.115 49.187 222.596 -11.8371 410.198 3.78541C587.409 18.5421 675.427 96.7931 717.206 180.926C758.985 265.059 754.523 355.075 746.777 393.362Z" stroke="#478B45" stroke-opacity="0.15" stroke-width="2.10293" stroke-miterlimit="10"/>
<path d="M415.1 15.7431C577.657 29.0245 658.987 100.433 697.86 177.67C736.359 254.46 732.823 336.811 725.948 372.715C702.181 494.837 596.612 644.297 480.498 598.149C373.284 555.539 432.818 477.093 346.841 406.758C344.387 404.764 341.911 402.909 339.412 401.183C271.77 354.414 188.293 403.909 119.538 383.47C100.874 377.922 83.2499 367.315 67.4176 348.306C21.8773 293.627 21.9144 203.396 76.3394 130.52C131.111 57.3482 241.028 1.68327 415.1 15.7431Z" stroke="#478B45" stroke-opacity="0.15" stroke-width="2.10293" stroke-miterlimit="10"/>
<path d="M420.001 27.7014C567.903 39.5068 642.547 104.073 678.514 174.414C713.733 243.862 711.226 318.569 705.118 352.067C684.605 464.574 588.094 602.31 480.907 563.722C382.46 528.28 432.654 458.01 353.374 394.768C351.089 392.945 348.773 391.26 346.444 389.681C283.594 346.957 207.051 388.803 144.556 368.003C127.492 362.324 111.394 352.16 97.0813 334.493C54.7471 282.237 55.5039 199.186 105.959 132.642C157.107 65.5093 259.459 15.2041 420.001 27.7014Z" stroke="#478B45" stroke-opacity="0.15" stroke-width="2.10293" stroke-miterlimit="10"/>
<path d="M424.903 39.6595C558.15 49.9897 626.273 107.616 659.168 171.158C691.27 233.169 689.57 300.313 684.288 331.42C666.825 434.261 579.609 560.311 481.316 529.295C391.666 501.007 432.367 439.092 359.908 382.778C357.788 381.131 355.636 379.612 353.476 378.179C295.417 339.501 225.803 373.679 169.575 352.537C154.109 346.722 139.546 336.995 126.745 320.68C87.6279 270.826 89.0932 194.977 135.578 134.765C183.102 73.6704 277.891 28.7243 424.903 39.6595Z" stroke="#478B45" stroke-opacity="0.15" stroke-width="2.10293" stroke-miterlimit="10"/>
<path d="M429.805 51.6186C548.415 60.2108 609.881 111.227 639.823 167.903C668.688 222.543 667.91 282.055 663.459 310.774C649.02 403.939 571.168 518.291 481.726 494.869C400.911 473.707 432.064 420.192 366.442 370.789C364.488 369.318 362.5 367.965 360.51 366.678C307.243 332.046 244.551 358.529 194.594 337.072C180.725 331.114 167.709 321.82 156.41 306.87C120.525 259.389 122.554 190.652 165.199 136.89C208.965 81.712 296.342 41.9502 429.805 51.6186Z" stroke="#478B45" stroke-opacity="0.15" stroke-width="2.10293" stroke-miterlimit="10"/>
<path d="M434.708 63.5771C538.664 70.6517 593.482 114.839 620.478 164.648C646.099 211.921 646.242 263.793 642.63 290.127C631.181 373.605 562.781 476.23 482.135 460.442C410.204 446.361 431.738 401.313 372.976 358.799C371.186 357.505 369.363 356.317 367.543 355.176C319.067 324.59 263.297 343.344 219.613 321.605C207.339 315.496 195.884 306.629 186.074 293.057C153.446 247.917 156.125 186.422 194.819 139.013C234.941 89.851 314.776 55.4153 434.708 63.5771Z" stroke="#478B45" stroke-opacity="0.15" stroke-width="2.10293" stroke-miterlimit="10"/>
<path d="M439.609 75.5355C528.91 81.1091 577.071 118.456 601.13 161.392C623.495 201.303 624.56 245.526 621.799 269.48C613.297 343.258 554.459 434.095 482.543 426.015C419.552 418.937 431.381 382.467 379.509 346.809C377.883 345.692 376.225 344.668 374.574 343.673C330.89 317.133 282.046 328.111 244.631 306.137C233.952 299.866 224.075 291.421 215.737 279.244C186.404 236.401 189.706 182.199 224.438 141.136C260.925 97.9961 333.207 68.8945 439.609 75.5355Z" stroke="#478B45" stroke-opacity="0.15" stroke-width="2.10293" stroke-miterlimit="10"/>
<path d="M444.511 87.4933C519.156 91.5904 560.644 122.078 581.785 158.136C600.874 190.694 602.862 227.256 600.97 248.832C595.352 312.897 546.104 395.45 482.952 391.588C429.052 388.292 430.988 363.671 386.043 334.819C384.58 333.88 383.089 333.02 381.606 332.171C342.714 309.675 300.812 312.816 269.649 290.67C260.57 284.219 252.287 276.193 245.401 265.431C219.423 224.826 223.299 177.986 254.057 143.258C286.923 106.151 351.638 82.3956 444.511 87.4933Z" stroke="#478B45" stroke-opacity="0.15" stroke-width="2.10293" stroke-miterlimit="10"/>
<path d="M449.414 99.4517C509.399 102.108 544.188 125.717 562.44 154.881C578.224 180.102 581.137 208.981 580.141 228.185C577.323 282.524 537.998 349.317 483.362 357.161C438.407 363.616 430.545 344.95 392.577 322.83C391.276 322.071 389.952 321.373 388.639 320.669C354.539 302.219 319.621 297.443 294.668 275.204C287.202 268.549 280.529 260.945 275.066 251.619C252.548 213.175 256.912 173.79 283.678 145.381C312.939 114.323 370.065 95.9372 449.414 99.4517Z" stroke="#478B45" stroke-opacity="0.15" stroke-width="2.10293" stroke-miterlimit="10"/>
<path d="M454.315 111.41C499.638 112.686 527.674 129.394 543.093 151.625C555.521 169.544 559.365 190.706 559.311 207.538C559.168 252.15 529.685 306.411 483.771 322.734C447.769 335.533 430.04 326.355 399.11 310.84C397.968 310.266 396.814 309.725 395.671 309.167C366.363 294.763 338.52 281.988 319.686 259.737C313.86 252.854 308.809 245.675 304.729 237.807C285.858 201.415 290.549 169.623 313.296 147.505C338.984 122.528 388.489 109.557 454.315 111.41Z" stroke="#478B45" stroke-opacity="0.15" stroke-width="2.10293" stroke-miterlimit="10"/>
<path d="M484.18 288.307C455.651 307.924 427.221 308.024 402.704 297.665C378.187 287.306 357.582 266.488 344.705 244.27C318.282 198.681 320.759 168.455 342.916 149.627C365.074 130.799 406.913 123.368 459.217 123.368C511.52 123.368 536.131 151.971 538.481 186.89C540.832 221.809 520.921 263.044 484.18 288.307Z" stroke="#478B45" stroke-opacity="0.15" stroke-width="2.10293" stroke-miterlimit="10"/>
</svg>
