<svg width="342" height="657" viewBox="0 0 342 657" fill="none" xmlns="http://www.w3.org/2000/svg">
<path d="M271.408 152.938C349.228 270.234 383.386 474.553 251.073 527.373C128.398 576.347 115.189 460.914 -10.646 472.569C-136.481 484.224 -141.505 665.27 -276.49 654.586C-354.839 648.384 -427.435 576.81 -442.839 474.964C-458.244 373.118 -416.458 241 -266.045 113.712C-123.962 -6.52654 -0.901093 -13.7553 92.2905 17.5922C185.482 48.9398 248.804 118.866 271.408 152.938Z" stroke="#478B45" stroke-opacity="0.15" stroke-width="2.10293" stroke-miterlimit="10"/>
<path d="M-253.566 118.934C-123.422 8.4503 -10.375 1.10662 75.5618 29.5009C160.891 57.842 219.225 121.41 240.71 153.072C313.506 261.05 345.992 449.805 225.896 501.589C115.006 549.405 101.008 447.281 -14.6836 458.858C-17.9756 459.199 -21.1816 459.659 -24.3077 460.231C-108.987 475.68 -134.138 574.097 -200.154 609.857C-218.075 619.565 -238.97 624.758 -264.757 622.407C-338.933 615.643 -405.688 548.833 -419.345 454.613C-432.963 359.918 -392.809 237.365 -253.566 118.934Z" stroke="#478B45" stroke-opacity="0.15" stroke-width="2.10293" stroke-miterlimit="10"/>
<path d="M-241.088 124.157C-122.883 23.4274 -19.8492 15.9693 58.8332 41.4099C136.3 66.7442 189.738 123.893 210.011 153.207C278.099 251.659 308.611 425.034 200.717 475.806C101.622 522.439 86.7628 433.279 -18.7229 445.149C-21.7632 445.491 -24.7239 445.958 -27.6167 446.513C-105.756 461.409 -131.436 549.033 -193.085 579.893C-209.919 588.319 -229.356 592.711 -253.026 590.228C-323.035 582.885 -383.944 520.856 -395.852 434.261C-407.683 346.718 -369.161 233.73 -241.088 124.157Z" stroke="#478B45" stroke-opacity="0.15" stroke-width="2.10293" stroke-miterlimit="10"/>
<path d="M-228.609 129.38C-122.342 38.4047 -29.2711 30.6359 42.1054 53.3191C111.761 75.4555 160.199 126.409 179.313 153.342C242.504 242.384 271.246 400.229 175.54 450.023C88.2502 495.439 72.549 419.489 -22.7604 431.439C-25.5478 431.789 -28.2653 432.258 -30.924 432.796C-102.522 447.14 -128.751 523.96 -186.015 549.928C-201.766 557.071 -219.743 560.651 -241.293 558.05C-307.144 550.103 -362.198 492.88 -372.358 413.91C-382.401 333.518 -345.511 230.095 -228.609 129.38Z" stroke="#478B45" stroke-opacity="0.15" stroke-width="2.10293" stroke-miterlimit="10"/>
<path d="M-216.13 134.603C-121.983 53.1754 -38.7311 45.4412 25.3779 65.2282C87.1833 84.3048 130.654 128.927 148.616 153.478C206.884 233.119 233.898 375.376 150.363 424.24C74.8871 468.39 58.3358 405.725 -26.7976 417.73C-29.3326 418.087 -31.8056 418.557 -34.2309 419.078C-99.2882 432.87 -126.088 498.871 -178.944 519.964C-193.618 525.82 -210.13 528.575 -229.559 525.872C-291.261 517.29 -340.634 464.914 -348.862 393.56C-357.308 320.328 -322.067 226.228 -216.13 134.603Z" stroke="#478B45" stroke-opacity="0.15" stroke-width="2.10293" stroke-miterlimit="10"/>
<path d="M-203.65 139.825C-121.472 68.1196 -48.1949 60.2517 8.65045 77.1366C62.6019 93.1618 101.1 131.448 117.918 153.612C171.229 223.871 196.56 350.453 125.186 398.456C61.5249 441.273 44.1217 391.994 -30.8358 404.019C-33.1184 404.386 -35.3473 404.857 -37.5389 405.359C-96.0558 418.599 -123.452 473.758 -171.874 489.999C-185.48 494.563 -200.521 496.478 -217.826 493.693C-275.385 484.433 -318.917 436.936 -325.368 373.208C-332.058 307.125 -298.457 222.55 -203.65 139.825Z" stroke="#478B45" stroke-opacity="0.15" stroke-width="2.10293" stroke-miterlimit="10"/>
<path d="M-191.172 145.048C-120.951 83.0789 -57.6647 75.0749 -8.07837 89.0467C38.0137 102.033 71.5332 133.976 87.2186 153.748C135.532 214.647 159.216 325.427 100.007 372.673C48.1473 414.056 29.9095 378.309 -34.8749 390.309C-36.905 390.686 -38.8894 391.156 -40.8477 391.641C-92.8234 404.329 -120.85 448.606 -164.805 460.035C-177.35 463.297 -190.911 464.358 -206.095 461.515C-259.516 451.516 -297.188 408.956 -301.874 352.857C-306.798 293.923 -274.838 218.885 -191.172 145.048Z" stroke="#478B45" stroke-opacity="0.15" stroke-width="2.10293" stroke-miterlimit="10"/>
<path d="M-178.693 150.271C-120.413 98.0562 -67.1416 89.9144 -24.8063 100.955C13.419 110.923 41.9511 136.512 56.5205 153.882C99.7788 205.457 124.429 303.008 74.8299 346.89C32.4968 384.344 15.7069 364.688 -38.913 376.599C-40.6907 376.987 -42.4305 377.455 -44.1565 377.923C-89.5918 390.059 -118.281 423.396 -157.736 430.07C-169.231 432.015 -181.301 432.206 -194.363 429.337C-243.643 418.511 -275.443 380.974 -278.381 332.505C-281.52 280.717 -251.204 215.236 -178.693 150.271Z" stroke="#478B45" stroke-opacity="0.15" stroke-width="2.10293" stroke-miterlimit="10"/>
<path d="M-166.214 155.493C-119.85 113.062 -76.6285 104.787 -41.5345 112.864C-11.1852 119.848 12.3455 139.066 25.8222 154.017C63.9542 196.321 84.2839 274.863 49.6523 321.106C21.1566 359.156 1.52288 351.16 -42.951 362.889C-44.4756 363.291 -45.972 363.754 -47.4642 364.205C-86.3588 375.788 -115.737 398.097 -150.666 400.106C-161.118 400.707 -171.684 400.017 -182.63 397.158C-227.751 385.37 -253.671 352.991 -254.887 312.154C-256.217 267.509 -227.544 211.62 -166.214 155.493Z" stroke="#478B45" stroke-opacity="0.15" stroke-width="2.10293" stroke-miterlimit="10"/>
<path d="M-153.735 160.716C-119.246 128.115 -86.1296 119.731 -58.2628 124.773C-35.8021 128.837 -17.2947 141.655 -4.87671 154.153C28.0364 187.277 46.3757 249.259 24.474 295.323C7.30093 331.442 -12.6137 337.771 -46.99 349.18C-48.2596 349.601 -49.514 350.054 -50.773 350.488C-83.1263 361.519 -113.189 372.671 -143.597 370.142C-153.004 369.359 -162.055 367.784 -170.899 364.98C-211.801 352.013 -231.859 325.011 -231.393 291.804C-230.867 254.305 -203.827 208.065 -153.735 160.716Z" stroke="#478B45" stroke-opacity="0.15" stroke-width="2.10293" stroke-miterlimit="10"/>
<path d="M-0.7034 269.54C-7.29961 305.174 -28.2679 326.29 -54.0809 336.769C-79.8938 347.248 -110.552 347.09 -136.527 340.177C-189.825 325.991 -210.364 301.787 -207.899 271.452C-205.435 241.117 -179.968 204.65 -141.257 165.938C-102.545 127.227 -63.1599 130.182 -35.5756 154.287C-7.99088 178.392 7.79195 223.649 -0.7034 269.54Z" stroke="#478B45" stroke-opacity="0.15" stroke-width="2.10293" stroke-miterlimit="10"/>
</svg>
