<svg width="607" height="848" viewBox="0 0 607 848" fill="none" xmlns="http://www.w3.org/2000/svg">
<path d="M357.279 803.33C514.753 725.03 679.346 525.299 569.181 385.493C467.041 255.871 380.64 372.516 251.77 281.299C122.9 190.081 230.559 -8.94631 77.8335 -81.7089C-10.8131 -123.942 -134.071 -91.8492 -214.361 8.72348C-294.65 109.296 -331.971 278.348 -248.74 510.033C-170.12 728.886 -41.4856 813.582 78.9287 837.88C199.343 862.178 311.538 826.075 357.279 803.33Z" stroke="#478B45" stroke-opacity="0.15" stroke-width="2.10293" stroke-miterlimit="10"/>
<path d="M-231.977 512.178C-160.181 713.019 -42.4528 791.584 68.2669 814.545C178.297 837.184 281.123 804.844 324.148 784.008C470.364 712.653 623.426 528.715 525.832 397.663C435.721 276.657 356.78 378.409 238.836 293.612C235.487 291.187 232.305 288.686 229.28 286.115C147.309 216.501 181.575 94.3038 132.486 14.3727C119.16 -7.32519 99.7965 -25.9974 70.4262 -39.5623C-14.0558 -78.5805 -128.02 -47.9937 -201.654 45.42C-275.543 139.372 -308.654 297.055 -231.977 512.178Z" stroke="#478B45" stroke-opacity="0.15" stroke-width="2.10293" stroke-miterlimit="10"/>
<path d="M-215.212 514.322C-150.241 697.151 -43.4184 769.584 57.6071 791.209C157.251 812.191 250.77 783.738 291.017 764.685C426.189 700.695 567.507 532.166 482.484 409.832C404.395 297.473 332.621 384.66 225.902 305.922C222.826 303.653 219.915 301.297 217.131 298.89C141.892 233.96 168.843 123.11 121.417 51.2096C108.467 31.5769 90.18 14.6827 63.0188 2.58288C-17.3176 -33.2054 -121.969 -4.13974 -188.948 82.1161C-256.435 169.446 -285.336 315.761 -215.212 514.322Z" stroke="#478B45" stroke-opacity="0.15" stroke-width="2.10293" stroke-miterlimit="10"/>
<path d="M-198.448 516.466C-140.3 681.283 -44.4519 747.829 46.9463 767.874C136.141 787.435 220.38 762.562 257.885 745.362C381.88 688.495 511.582 535.663 439.135 422.001C373.059 318.333 308.627 390.701 212.968 318.233C210.171 316.113 207.523 313.908 204.983 311.666C136.475 251.419 156.085 151.916 110.348 88.0468C97.7677 70.4793 80.5526 55.3756 55.6114 44.7276C-20.6031 12.1906 -115.917 39.7136 -176.241 118.811C-237.328 199.52 -262.02 334.467 -198.448 516.466Z" stroke="#478B45" stroke-opacity="0.15" stroke-width="2.10293" stroke-miterlimit="10"/>
<path d="M-181.683 518.611C-130.684 665.526 -45.4382 725.901 36.2874 744.539C115.077 762.508 189.986 741.382 224.757 726.04C337.553 676.267 455.648 539.223 395.789 434.171C341.705 339.252 284.651 396.715 200.036 330.545C197.517 328.575 195.135 326.521 192.836 324.443C131.061 268.88 143.294 180.726 99.281 124.885C87.0617 109.382 70.9165 96.0871 48.2068 86.8743C-23.9148 57.6164 -110.054 83.4439 -163.531 155.508C-218.416 229.468 -239.068 353.297 -181.683 518.611Z" stroke="#478B45" stroke-opacity="0.15" stroke-width="2.10293" stroke-miterlimit="10"/>
<path d="M-164.918 520.756C-120.796 649.675 -46.4261 703.964 25.6275 721.205C94.0129 737.569 159.584 720.192 191.626 706.717C293.198 664.001 399.679 542.865 352.441 446.34C310.307 360.245 260.693 402.693 187.102 342.856C184.862 341.034 182.744 339.132 180.687 337.219C125.643 286.339 130.457 209.545 88.2115 161.723C76.3414 148.286 61.2635 136.818 40.7994 129.02C-27.2635 103.084 -104.034 127.282 -150.824 192.204C-199.343 259.525 -215.82 372.025 -164.918 520.756Z" stroke="#478B45" stroke-opacity="0.15" stroke-width="2.10293" stroke-miterlimit="10"/>
<path d="M-148.153 522.9C-110.887 633.815 -47.4121 682.01 14.9676 697.868C72.9511 712.61 129.173 698.987 158.495 687.393C248.812 651.682 343.64 546.614 309.092 458.508C278.831 381.336 236.767 408.621 174.168 355.167C172.207 353.492 170.353 351.744 168.538 349.995C120.227 303.798 117.562 238.384 77.1422 198.559C65.6065 187.193 51.5959 177.575 33.3922 171.165C-30.6544 148.612 -98.0023 171.129 -138.117 228.899C-180.26 289.59 -192.555 390.744 -148.153 522.9Z" stroke="#478B45" stroke-opacity="0.15" stroke-width="2.10293" stroke-miterlimit="10"/>
<path d="M-131.389 525.045C-100.949 617.946 -48.3962 660.033 4.30685 674.534C51.8932 687.627 98.7496 677.764 125.364 668.071C204.387 639.291 291.996 549.141 265.744 470.677C243.337 403.708 212.892 414.486 161.234 367.479C159.553 365.948 157.963 364.356 156.388 362.771C114.809 321.257 104.593 267.265 66.0718 235.397C54.8499 226.112 41.909 218.365 25.9838 213.311C-34.0991 194.239 -91.9546 214.989 -125.411 265.596C-161.159 319.67 -169.263 409.456 -131.389 525.045Z" stroke="#478B45" stroke-opacity="0.15" stroke-width="2.10293" stroke-miterlimit="10"/>
<path d="M-114.625 527.19C-90.9664 602.062 -49.3702 638.016 -6.3537 651.2C30.8469 662.601 68.3118 656.507 92.2331 648.749C159.918 626.797 230.978 554.516 222.395 482.847C215.332 423.877 189.094 420.264 148.301 379.791C146.902 378.404 145.572 376.968 144.239 375.548C109.392 338.718 91.5409 296.228 55.0027 272.235C44.0703 265.056 32.2066 259.201 18.5768 255.457C-37.6064 240.025 -85.8782 258.868 -112.705 302.293C-142.032 349.767 -145.921 428.149 -114.625 527.19Z" stroke="#478B45" stroke-opacity="0.15" stroke-width="2.10293" stroke-miterlimit="10"/>
<path d="M-97.861 529.334C-80.9094 586.152 -50.3154 615.911 -17.0143 627.864C9.8265 637.498 37.8584 635.19 59.1017 629.425C115.406 614.145 173.968 558.538 179.046 495.015C183.028 445.208 165.434 425.919 135.366 392.101C134.256 390.852 133.181 389.578 132.09 388.323C103.975 356.177 78.4147 325.331 43.9334 309.071C33.2671 304.042 22.4898 300.092 11.1694 297.601C-41.1869 286.081 -79.7571 302.767 -99.9975 338.987C-122.853 379.888 -122.481 446.812 -97.861 529.334Z" stroke="#478B45" stroke-opacity="0.15" stroke-width="2.10293" stroke-miterlimit="10"/>
<path d="M135.698 507.185C150.822 464.508 141.325 428.563 119.942 401.099C98.5588 373.636 65.289 354.656 32.8647 345.909C-33.6644 327.964 -71.0062 341.322 -87.2898 375.683C-103.573 410.045 -98.7992 465.41 -81.0964 531.478C-63.3936 597.546 -18.9333 618.952 25.9709 610.102C70.8752 601.252 116.223 562.145 135.698 507.185Z" stroke="#478B45" stroke-opacity="0.15" stroke-width="2.10293" stroke-miterlimit="10"/>
</svg>
