<svg width="53" height="32" viewBox="0 0 53 32" fill="none" xmlns="http://www.w3.org/2000/svg">
<path d="M27.7213 12.8259L25.2569 15.0856C21.9218 18.1442 18.1267 16.0646 16.9027 14.7329C14.693 12.3162 14.8655 8.57616 17.2642 6.37321L23.9837 0.216461H23.4415C18.6935 0.216461 14.1262 2.10294 10.7664 5.4608L2.86402 5.48546C1.41825 5.48546 0.235352 6.66831 0.235352 8.1142V21.2497C0.235352 22.6956 1.41825 23.8834 2.79008 23.8834L12.1793 23.8784L19.6135 30.604C21.8725 32.4428 25.1789 32.0926 27.0067 29.8432L28.4951 31.0968C29.7996 32.0914 31.73 31.9599 32.7979 30.6554L35.3757 27.4825L35.8171 27.8523C36.9466 28.7565 38.6002 28.5922 39.5137 27.462L40.3003 26.4896C41.2105 25.3634 41.0379 23.7153 39.9141 22.8021L27.7213 12.8259ZM50.18 5.48546L42.294 5.47513C38.9276 2.10823 34.362 0.224213 29.6025 0.224213L28.896 0.216461C28.2388 0.216461 27.6129 0.479254 27.12 0.920748L19.0467 8.29669C19.0385 8.31313 19.0303 8.32957 19.0303 8.32957C17.6503 9.62832 17.6831 11.6669 18.8496 12.9327C19.6402 13.7958 21.7247 14.7099 23.4604 13.1588C23.4604 13.1485 23.481 13.1485 23.4912 13.1382L30.0629 7.12945C30.5968 6.64686 31.4281 6.67768 31.921 7.21165C32.4139 7.74562 32.3728 8.57781 31.8389 9.07101L29.6932 11.0331L41.6536 20.7409C42.6493 21.5622 43.2555 22.6718 43.4707 23.8628L50.18 23.8653C51.6257 23.8653 52.8086 22.6833 52.8086 21.2366V8.11585C52.8086 6.66091 51.6339 5.48546 50.18 5.48546Z" fill="#478B45"/>
</svg>
