<svg width="60" height="54" viewBox="0 0 60 54" fill="none" xmlns="http://www.w3.org/2000/svg">
<path d="M58.5792 35.4877C57.232 33.6589 54.6629 33.2636 52.8362 34.6181L40.5451 43.6716H28.1616C27.2634 43.6716 26.6111 42.9271 26.6111 42.0297C26.6111 41.1312 27.3556 40.3868 28.1616 40.3868H36.1965C37.747 40.3868 39.354 39.2696 39.623 37.6534C39.9567 35.5997 38.3785 33.8151 36.3762 33.8151H19.8577C17.1777 33.8151 14.4032 34.7649 12.2469 36.5105L7.47219 40.3858L1.78565 40.2932C0.979702 40.2932 0.235153 41.1352 0.235153 42.0286V51.884C0.235153 52.7897 0.979702 53.529 1.78565 53.529H37.324C39.586 53.529 41.8338 52.7909 43.6594 51.4476L57.5318 41.2287C59.5341 39.8825 59.9243 37.3154 58.5792 35.4877ZM28.9143 18.9251C28.1339 18.8121 27.1071 18.4425 26.2035 18.1139L25.7003 17.9393C24.4168 17.3951 23.0101 18.155 22.5583 19.3461C22.1065 20.5372 22.776 22.0363 24.0564 22.4923L24.5344 22.6623C25.4057 22.9766 26.3703 23.2881 27.3468 23.5158V24.778C27.3468 26.1385 28.4486 27.2423 29.8092 27.2423C31.1697 27.2423 32.2735 26.1385 32.2735 24.778V23.7101C34.8683 23.1224 36.6765 21.4665 37.0072 19.0154C37.8993 13.8762 33.0139 12.4787 30.3924 11.7301L29.8487 11.5422C27.1481 10.7762 27.3022 10.4456 27.3741 10.0236C27.4928 9.3288 28.9451 8.99057 30.6814 9.26463C31.1885 9.34482 31.8489 9.52616 32.6992 9.82137C33.9858 10.261 35.3904 9.58397 35.833 8.29757C36.2756 7.01117 35.5959 5.60832 34.3092 5.16268C33.5286 4.89293 32.8799 4.71519 32.274 4.57524V3.42006C32.274 2.05952 31.1702 0.955688 29.8097 0.955688C28.4491 0.955688 27.3474 2.05952 27.3474 3.42006V4.50028C24.7557 5.08659 22.9382 6.73156 22.4248 9.18361C21.6341 14.2633 26.5937 15.7214 28.4625 16.2759L29.1297 16.4684C32.3806 17.3989 32.3283 17.6893 32.2451 18.177C32.1282 18.8737 30.6804 19.2126 28.9143 18.9251Z" fill="#478B45"/>
</svg>
