<svg width="53" height="54" viewBox="0 0 53 54" fill="none" xmlns="http://www.w3.org/2000/svg">
<path d="M20.7825 48.3723C22.6528 48.8841 24.5828 49.1448 26.5218 49.1478L26.8307 49.1456C27.9376 49.1318 29.0232 48.8384 29.9863 48.2927C30.9495 47.7469 31.7591 46.9666 32.3399 46.0241C33.5272 44.1051 33.6542 41.7459 32.6751 39.7153L32.2413 38.8062C31.249 36.7427 32.0288 34.872 33.0913 33.8096C34.1537 32.7471 36.0288 31.9673 38.0857 32.9596H38.0879L38.9926 33.3955C39.9874 33.8766 41.0877 34.0981 42.1912 34.0395C43.2946 33.9809 44.3653 33.6441 45.3036 33.0604C46.2466 32.48 47.0275 31.6706 47.5737 30.7073C48.1199 29.7441 48.4135 28.6584 48.4273 27.5511C48.4547 25.5095 48.1944 23.4742 47.6541 21.5052C45.3803 13.122 38.1186 6.71022 29.5908 5.54703C22.6927 4.61167 15.9195 6.86575 11.0346 11.7529C6.14965 16.64 3.88461 23.4022 4.82655 30.309C5.98754 38.8391 12.4015 46.0986 20.7825 48.3723ZM34.1887 14.099C35.0602 14.099 35.8959 14.4451 36.5122 15.0613C37.1284 15.6776 37.4746 16.5133 37.4746 17.3848C37.4746 18.2562 37.1284 19.092 36.5122 19.7082C35.8959 20.3244 35.0602 20.6706 34.1887 20.6706C33.3173 20.6706 32.4815 20.3244 31.8653 19.7082C31.2491 19.092 30.9029 18.2562 30.9029 17.3848C30.9029 16.5133 31.2491 15.6776 31.8653 15.0613C32.4815 14.4451 33.3173 14.099 34.1887 14.099ZM23.236 11.9084C24.1074 11.9084 24.9432 12.2546 25.5594 12.8708C26.1756 13.487 26.5218 14.3228 26.5218 15.1942C26.5218 16.0657 26.1756 16.9014 25.5594 17.5177C24.9432 18.1339 24.1074 18.4801 23.236 18.4801C22.3645 18.4801 21.5287 18.1339 20.9125 17.5177C20.2963 16.9014 19.9501 16.0657 19.9501 15.1942C19.9501 14.3228 20.2963 13.487 20.9125 12.8708C21.5287 12.2546 22.3645 11.9084 23.236 11.9084ZM19.9501 34.9223C19.9501 35.7938 19.6039 36.6296 18.9877 37.2458C18.3715 37.862 17.5358 38.2082 16.6643 38.2082C15.7928 38.2082 14.9571 37.862 14.3409 37.2458C13.7247 36.6296 13.3785 35.7938 13.3785 34.9223C13.3785 34.0509 13.7247 33.2151 14.3409 32.5989C14.9571 31.9827 15.7928 31.6365 16.6643 31.6365C17.5358 31.6365 18.3715 31.9827 18.9877 32.5989C19.6039 33.2151 19.9501 34.0509 19.9501 34.9223ZM14.4737 20.6838C15.3455 20.684 16.1814 21.0306 16.7976 21.6472C17.4138 22.2639 17.7599 23.1 17.7596 23.9718C17.7593 24.8435 17.4127 25.6794 16.7961 26.2957C16.1795 26.9119 15.3433 27.2579 14.4716 27.2576C13.5998 27.2573 12.7639 26.9107 12.1477 26.2941C11.5315 25.6775 11.1854 24.8413 11.1857 23.9696C11.186 23.0978 11.5326 22.2619 12.1492 21.6457C12.7658 21.0295 13.602 20.6835 14.4737 20.6838Z" fill="#478B45"/>
</svg>
