<svg width="46" height="46" viewBox="0 0 46 46" fill="none" xmlns="http://www.w3.org/2000/svg">
<path d="M13.6667 23.9775L19.4103 30.1997L32.3333 16.1997M13.2009 6.01897C14.889 5.88426 16.4915 5.22047 17.7804 4.12209C20.7881 1.55891 25.2119 1.55891 28.2196 4.12209C29.5085 5.22047 31.111 5.88426 32.7991 6.01897C36.7383 6.33332 39.8664 9.46139 40.1807 13.4006C40.3155 15.0887 40.9792 16.6912 42.0776 17.9801C44.6408 20.9878 44.6408 25.4116 42.0776 28.4193C40.9792 29.7082 40.3155 31.3107 40.1807 32.9988C39.8664 36.938 36.7383 40.0661 32.7991 40.3805C31.111 40.5152 29.5085 41.1789 28.2196 42.2773C25.2119 44.8405 20.7881 44.8405 17.7804 42.2773C16.4915 41.1789 14.889 40.5152 13.2009 40.3805C9.26168 40.0661 6.13361 36.938 5.81926 32.9988C5.68455 31.3107 5.02076 29.7082 3.92238 28.4193C1.35921 25.4116 1.35921 20.9878 3.92238 17.9801C5.02076 16.6912 5.68455 15.0887 5.81926 13.4006C6.13361 9.46139 9.26168 6.33332 13.2009 6.01897Z" stroke="#1E1E1E" stroke-width="3.4" stroke-linecap="round" stroke-linejoin="round"/>
</svg>
