<svg width="53" height="54" viewBox="0 0 53 54" fill="none" xmlns="http://www.w3.org/2000/svg">
<path d="M45.5005 8.57444L17.7593 18.4801V33.814L19.3979 34.3989L16.9291 39.3364C16.6479 39.8977 16.4908 40.5129 16.4682 41.1403C16.4457 41.7677 16.5583 42.3927 16.7985 42.9727C17.0386 43.5528 17.4007 44.0744 17.8602 44.5023C18.3196 44.9301 18.8657 45.2541 19.4614 45.4524L28.4076 48.4338C29.4084 48.76 30.4928 48.7179 31.4652 48.315C32.4377 47.9122 33.2341 47.175 33.711 46.2366L36.5652 40.528L45.5005 43.7197C45.8309 43.8376 46.1848 43.8743 46.5324 43.827C46.88 43.7796 47.2111 43.6494 47.4979 43.4474C47.7848 43.2454 48.0189 42.9774 48.1805 42.6661C48.3422 42.3548 48.4268 42.0092 48.4271 41.6584V10.6357C48.4268 10.2849 48.3422 9.93933 48.1805 9.628C48.0189 9.31668 47.7848 9.04874 47.4979 8.84673C47.2111 8.64471 46.88 8.51454 46.5324 8.46716C46.1848 8.41977 45.8309 8.45657 45.5005 8.57444ZM29.7921 44.2783L20.848 41.2969L23.5534 35.8841L32.4076 39.0472L29.7921 44.2783ZM8.99713 33.814H13.3782V18.4801H8.99713C6.58095 18.4801 4.61603 20.445 4.61603 22.8612V29.4329C4.61603 31.8491 6.58095 33.814 8.99713 33.814Z" fill="#478B45"/>
</svg>
