<svg width="53" height="54" viewBox="0 0 53 54" fill="none" xmlns="http://www.w3.org/2000/svg">
<g clip-path="url(#clip0_0_171)">
<path d="M13.7251 20.6707H44.046V15.742C44.046 13.0209 42.0836 10.8132 39.6649 10.8132H25.0612L19.2197 4.24158H4.61603C2.19638 4.24158 0.234924 6.44822 0.234924 9.17032V42.8912L8.49879 24.2954C9.49001 22.0672 11.498 20.6707 13.7251 20.6707ZM49.8053 23.9566H13.7251C12.6207 23.9566 11.6075 24.6548 11.1147 25.774L0.234924 50.2432H41.0431C42.1493 50.2432 43.1606 49.5396 43.6553 48.4268L52.4175 28.7118C53.4654 26.5236 52.0506 23.9566 49.8053 23.9566Z" fill="#478B45"/>
</g>
<defs>
<clipPath id="clip0_0_171">
<rect width="52.5733" height="52.5733" fill="white" transform="translate(0.234985 0.955902)"/>
</clipPath>
</defs>
</svg>
