<svg width="53" height="54" viewBox="0 0 53 54" fill="none" xmlns="http://www.w3.org/2000/svg">
<path d="M26.5218 31.3496C25.8719 31.3496 25.2366 31.1568 24.6963 30.7958C24.1559 30.4347 23.7348 29.9216 23.4861 29.3212C23.2374 28.7207 23.1723 28.0601 23.2991 27.4227C23.4259 26.7853 23.7388 26.1998 24.1984 25.7403C24.6579 25.2808 25.2434 24.9678 25.8808 24.841C26.5181 24.7142 27.1788 24.7793 27.7792 25.028C28.3796 25.2767 28.8928 25.6979 29.2539 26.2382C29.6149 26.7786 29.8076 27.4138 29.8076 28.0637C29.8076 28.9352 29.4614 29.7709 28.8452 30.3872C28.229 31.0034 27.3932 31.3496 26.5218 31.3496ZM44.8198 29.8093L29.6433 50.4074C29.5399 50.5453 29.3957 50.6472 29.2311 50.6986C29.0665 50.75 28.89 50.7483 28.7264 50.6938C28.5628 50.6393 28.4206 50.5347 28.3198 50.3948C28.219 50.2549 28.1647 50.0869 28.1647 49.9145V34.43C29.7134 34.0301 31.0631 33.0792 31.9608 31.7553C32.8585 30.4315 33.2426 28.8257 33.0411 27.239C32.8395 25.6522 32.0662 24.1935 30.866 23.1361C29.6659 22.0787 28.1213 21.4954 26.5218 21.4954C24.9223 21.4954 23.3777 22.0787 22.1775 23.1361C20.9774 24.1935 20.2041 25.6522 20.0025 27.239C19.801 28.8257 20.185 30.4315 21.0828 31.7553C21.9805 33.0792 23.3302 34.0301 24.8789 34.43V49.9145C24.8789 50.0869 24.8246 50.2549 24.7238 50.3948C24.623 50.5347 24.4807 50.6393 24.3172 50.6938C24.1536 50.7483 23.9771 50.75 23.8125 50.6986C23.6479 50.6472 23.5037 50.5453 23.4003 50.4074L8.22383 29.8093C7.86632 29.3233 7.64862 28.7487 7.59432 28.1478C7.54002 27.5468 7.65119 26.9425 7.91578 26.4003L13.3785 15.3517V7.52728C13.3785 6.65583 13.7247 5.82006 14.3409 5.20385C14.9571 4.58764 15.7928 4.24146 16.6643 4.24146H36.3793C37.2507 4.24146 38.0865 4.58764 38.7027 5.20385C39.3189 5.82006 39.6651 6.65583 39.6651 7.52728V15.3517L45.1278 26.4003C45.3924 26.9425 45.5036 27.5468 45.4493 28.1478C45.395 28.7487 45.1773 29.3233 44.8198 29.8093ZM36.3793 7.52728H16.6643V14.0989H36.3793V7.52728Z" fill="white"/>
</svg>
