<svg width="53" height="54" viewBox="0 0 53 54" fill="none" xmlns="http://www.w3.org/2000/svg">
<path d="M14.1997 7.52731C12.2389 7.52731 10.3585 8.30623 8.97197 9.69271C7.58549 11.0792 6.80658 12.9597 6.80658 14.9204V32.9925C6.80658 34.9533 7.58549 36.8337 8.97197 38.2202C10.3585 39.6067 12.2389 40.3856 14.1997 40.3856H35.5576C37.5184 40.3856 39.3988 39.6067 40.7853 38.2202C42.1718 36.8337 42.9507 34.9533 42.9507 32.9925V14.9204C42.9507 12.9597 42.1718 11.0792 40.7853 9.69271C39.3988 8.30623 37.5184 7.52731 35.5576 7.52731H14.1997ZM19.9499 30.515V17.3979C19.9497 17.1002 20.0303 16.8081 20.1832 16.5527C20.3362 16.2972 20.5556 16.0882 20.8181 15.9478C21.0807 15.8074 21.3764 15.741 21.6737 15.7557C21.9711 15.7703 22.2588 15.8655 22.5063 16.031L32.3539 22.5896C32.5796 22.7395 32.7647 22.9429 32.8928 23.1816C33.0208 23.4204 33.0878 23.6872 33.0878 23.9581C33.0878 24.2291 33.0208 24.4958 32.8928 24.7346C32.7647 24.9733 32.5796 25.1767 32.3539 25.3267L22.503 31.8852C22.2554 32.05 21.9676 32.1444 21.6705 32.1585C21.3734 32.1726 21.078 32.1057 20.8159 31.965C20.5538 31.8244 20.3348 31.6152 20.1823 31.3598C20.0298 31.1044 19.9495 30.8124 19.9499 30.515ZM19.9499 46.9573C18.6744 46.9583 17.4163 46.6618 16.2755 46.0914C15.1347 45.521 14.1427 44.6924 13.3782 43.6714H37.2005C39.597 43.6714 41.8954 42.7194 43.5899 41.0249C45.2845 39.3303 46.2365 37.0319 46.2365 34.6354V14.099C48.231 15.5973 49.5224 17.9828 49.5224 20.6706V34.6354C49.5224 37.9034 48.2242 41.0375 45.9134 43.3483C43.6026 45.6591 40.4685 46.9573 37.2005 46.9573H19.9499Z" fill="#478B45"/>
</svg>
