<svg width="53" height="54" viewBox="0 0 53 54" fill="none" xmlns="http://www.w3.org/2000/svg">
<mask id="mask0_0_221" style="mask-type:alpha" maskUnits="userSpaceOnUse" x="2" y="7" width="49" height="42">
<path d="M25.4266 44.7669H7.90213C7.03068 44.7669 6.19491 44.4207 5.5787 43.8045C4.96249 43.1883 4.6163 42.3525 4.6163 41.481V13.0038C4.6163 12.1324 4.96249 11.2966 5.5787 10.6804C6.19491 10.0642 7.03068 9.71802 7.90213 9.71802H45.1415C46.013 9.71802 46.8488 10.0642 47.465 10.6804C48.0812 11.2966 48.4274 12.1324 48.4274 13.0038V29.3038" stroke="white" stroke-width="4.38111" stroke-linecap="round" stroke-linejoin="round"/>
<path d="M4.6163 13.0038C4.6163 12.1324 4.96249 11.2966 5.5787 10.6804C6.19491 10.0642 7.03068 9.71802 7.90213 9.71802H45.1415C46.013 9.71802 46.8488 10.0642 47.465 10.6804C48.0812 11.2966 48.4274 12.1324 48.4274 13.0038V22.8613H4.6163V13.0038Z" fill="white" stroke="white" stroke-width="4.38111"/>
<path d="M44.0466 37.0999L48.4277 41.481L44.0466 45.8621M37.475 37.0999L33.0939 41.481L37.475 45.8621V37.0999Z" stroke="white" stroke-width="4.38111" stroke-linecap="round" stroke-linejoin="round"/>
<path d="M8.99691 16.2897C8.99691 15.0799 9.97766 14.0991 11.1875 14.0991C12.3973 14.0991 13.378 15.0799 13.378 16.2897C13.378 17.4995 12.3973 18.4802 11.1875 18.4802C9.97766 18.4802 8.99691 17.4995 8.99691 16.2897Z" fill="black"/>
<path d="M15.5691 16.2896C15.5691 15.0798 16.5498 14.0991 17.7596 14.0991C18.9695 14.0991 19.9502 15.0798 19.9502 16.2896C19.9502 17.4994 18.9695 18.4802 17.7596 18.4802C16.5498 18.4802 15.5691 17.4994 15.5691 16.2896Z" fill="black"/>
</mask>
<g mask="url(#mask0_0_221)">
<path d="M0.235199 0.955688H52.8085V53.529H0.235199V0.955688Z" fill="#478B45"/>
</g>
</svg>
