<svg width="253" height="71" viewBox="0 0 253 71" fill="none" xmlns="http://www.w3.org/2000/svg">
<path d="M39.8591 35.3422C45.871 32.2484 50 25.946 50 18.6888C49.9963 8.38222 41.6832 0 31.4615 0H10.0932V4.07083H31.4615C39.4553 4.07083 45.959 10.6286 45.959 18.6888C45.959 26.7491 39.4553 33.3068 31.4615 33.3068H1.65162V37.3777H31.4615C39.4553 37.3777 45.959 43.9354 45.959 51.9956C45.959 60.0559 39.4553 66.6136 31.4615 66.6136H10.0932V70.6845H31.4615C41.6832 70.6845 49.9963 62.3023 49.9963 51.9956C49.9963 44.7385 45.8673 38.4361 39.8554 35.3422H39.8591Z" fill="#478B45"/>
<path d="M10.0932 12.5826H31.4615C34.8014 12.5826 37.5174 15.3211 37.5174 18.6888C37.5174 22.0565 34.8014 24.7951 31.4615 24.7951H12.1119V18.6888H8.07458V28.8659H31.4615C37.0256 28.8659 41.5547 24.2992 41.5547 18.6888C41.5547 13.0785 37.0256 8.51174 31.4615 8.51174H10.0932C4.52911 8.51174 0 13.0785 0 18.6888H4.03729C4.03729 15.3211 6.75329 12.5826 10.0932 12.5826Z" fill="#478B45"/>
<path d="M31.4615 62.1727C37.0256 62.1727 41.5547 57.606 41.5547 51.9956C41.5547 46.3853 37.0256 41.8186 31.4615 41.8186H8.07458V51.9956H12.1119V45.8894H31.4615C34.8014 45.8894 37.5174 48.628 37.5174 51.9956C37.5174 55.3633 34.8014 58.1019 31.4615 58.1019H10.0932C6.75329 58.1019 4.03729 55.3633 4.03729 51.9956H0C0 57.606 4.52911 62.1727 10.0932 62.1727H31.4615Z" fill="#478B45"/>
<path d="M69.196 44.3423V41.3263H71.588V29.1583H69.196V26.1423H78.556C79.6653 26.1423 80.6273 26.333 81.442 26.7143C82.274 27.0783 82.9153 27.607 83.366 28.3003C83.834 28.9763 84.068 29.791 84.068 30.7443V31.0043C84.068 31.8363 83.912 32.521 83.6 33.0583C83.288 33.5783 82.9153 33.9856 82.482 34.2803C82.066 34.5576 81.6673 34.757 81.286 34.8783V35.3463C81.6673 35.4503 82.0833 35.6496 82.534 35.9443C82.9847 36.2216 83.366 36.6289 83.678 37.1663C84.0073 37.7036 84.172 38.4056 84.172 39.2723V39.5323C84.172 40.5376 83.938 41.4043 83.47 42.1323C83.002 42.843 82.352 43.389 81.52 43.7703C80.7053 44.1516 79.752 44.3423 78.66 44.3423H69.196ZM75.02 41.2223H78.244C78.9893 41.2223 79.5873 41.0403 80.038 40.6763C80.506 40.3123 80.74 39.7923 80.74 39.1163V38.8563C80.74 38.1803 80.5147 37.6603 80.064 37.2963C79.6133 36.9323 79.0067 36.7503 78.244 36.7503H75.02V41.2223ZM75.02 33.6303H78.192C78.9027 33.6303 79.4833 33.4483 79.934 33.0843C80.402 32.7203 80.636 32.2176 80.636 31.5763V31.3163C80.636 30.6576 80.4107 30.155 79.96 29.8083C79.5093 29.4443 78.92 29.2623 78.192 29.2623H75.02V33.6303Z" fill="#478B45"/>
<path d="M86.9816 44.3423V26.1423H94.8856C96.0296 26.1423 97.0263 26.3416 97.8756 26.7403C98.725 27.139 99.3836 27.7023 99.8516 28.4303C100.32 29.1583 100.554 30.0163 100.554 31.0043V31.3163C100.554 32.4083 100.294 33.2923 99.7736 33.9683C99.2536 34.6443 98.6123 35.1383 97.8496 35.4503V35.9183C98.543 35.953 99.0803 36.1956 99.4616 36.6463C99.843 37.0796 100.034 37.6603 100.034 38.3883V44.3423H96.6016V38.8823C96.6016 38.4663 96.489 38.1283 96.2636 37.8683C96.0556 37.6083 95.7003 37.4783 95.1976 37.4783H90.4136V44.3423H86.9816ZM90.4136 34.3583H94.5216C95.3363 34.3583 95.969 34.1416 96.4196 33.7083C96.8876 33.2576 97.1216 32.6683 97.1216 31.9403V31.6803C97.1216 30.9523 96.8963 30.3716 96.4456 29.9383C95.995 29.4876 95.3536 29.2623 94.5216 29.2623H90.4136V34.3583Z" fill="#478B45"/>
<path d="M103.409 44.3423V26.1423H106.841V44.3423H103.409Z" fill="#478B45"/>
<path d="M116.557 44.7063C115.309 44.7063 114.173 44.429 113.151 43.8743C112.145 43.3023 111.339 42.479 110.733 41.4043C110.143 40.3123 109.849 38.9863 109.849 37.4263V33.0583C109.849 30.7183 110.507 28.9243 111.825 27.6763C113.142 26.411 114.927 25.7783 117.181 25.7783C119.417 25.7783 121.141 26.3763 122.355 27.5723C123.585 28.751 124.201 30.3543 124.201 32.3823V32.4863H120.821V32.2783C120.821 31.637 120.682 31.0563 120.405 30.5363C120.145 30.0163 119.746 29.609 119.209 29.3143C118.672 29.0023 117.995 28.8463 117.181 28.8463C115.967 28.8463 115.014 29.219 114.321 29.9643C113.627 30.7096 113.281 31.7236 113.281 33.0063V37.4783C113.281 38.7436 113.627 39.7663 114.321 40.5463C115.014 41.309 115.985 41.6903 117.233 41.6903C118.481 41.6903 119.391 41.361 119.963 40.7023C120.535 40.0436 120.821 39.2116 120.821 38.2063V37.9463H116.505V35.0343H124.201V44.3423H121.029V42.6003H120.561C120.439 42.895 120.24 43.207 119.963 43.5363C119.703 43.8656 119.304 44.143 118.767 44.3683C118.229 44.5936 117.493 44.7063 116.557 44.7063Z" fill="#478B45"/>
<path d="M127.48 44.3423V26.1423H130.912V33.6563H137.672V26.1423H141.104V44.3423H137.672V36.7763H130.912V44.3423H127.48Z" fill="#478B45"/>
<path d="M148.754 44.3423V29.2623H143.45V26.1423H157.49V29.2623H152.186V44.3423H148.754Z" fill="#478B45"/>
<path d="M165.122 44.3423V41.3263H167.514V29.1583H165.122V26.1423H174.482C175.591 26.1423 176.553 26.333 177.368 26.7143C178.2 27.0783 178.841 27.607 179.292 28.3003C179.76 28.9763 179.994 29.791 179.994 30.7443V31.0043C179.994 31.8363 179.838 32.521 179.526 33.0583C179.214 33.5783 178.841 33.9856 178.408 34.2803C177.992 34.5576 177.593 34.757 177.212 34.8783V35.3463C177.593 35.4503 178.009 35.6496 178.46 35.9443C178.91 36.2216 179.292 36.6289 179.604 37.1663C179.933 37.7036 180.098 38.4056 180.098 39.2723V39.5323C180.098 40.5376 179.864 41.4043 179.396 42.1323C178.928 42.843 178.278 43.389 177.446 43.7703C176.631 44.1516 175.678 44.3423 174.586 44.3423H165.122ZM170.946 41.2223H174.17C174.915 41.2223 175.513 41.0403 175.964 40.6763C176.432 40.3123 176.666 39.7923 176.666 39.1163V38.8563C176.666 38.1803 176.44 37.6603 175.99 37.2963C175.539 36.9323 174.932 36.7503 174.17 36.7503H170.946V41.2223ZM170.946 33.6303H174.118C174.828 33.6303 175.409 33.4483 175.86 33.0843C176.328 32.7203 176.562 32.2176 176.562 31.5763V31.3163C176.562 30.6576 176.336 30.155 175.886 29.8083C175.435 29.4443 174.846 29.2623 174.118 29.2623H170.946V33.6303Z" fill="#478B45"/>
<path d="M182.907 44.3423V26.1423H190.811C191.955 26.1423 192.952 26.3416 193.801 26.7403C194.651 27.139 195.309 27.7023 195.777 28.4303C196.245 29.1583 196.479 30.0163 196.479 31.0043V31.3163C196.479 32.4083 196.219 33.2923 195.699 33.9683C195.179 34.6443 194.538 35.1383 193.775 35.4503V35.9183C194.469 35.953 195.006 36.1956 195.387 36.6463C195.769 37.0796 195.959 37.6603 195.959 38.3883V44.3423H192.527V38.8823C192.527 38.4663 192.415 38.1283 192.189 37.8683C191.981 37.6083 191.626 37.4783 191.123 37.4783H186.339V44.3423H182.907ZM186.339 34.3583H190.447C191.262 34.3583 191.895 34.1416 192.345 33.7083C192.813 33.2576 193.047 32.6683 193.047 31.9403V31.6803C193.047 30.9523 192.822 30.3716 192.371 29.9383C191.921 29.4876 191.279 29.2623 190.447 29.2623H186.339V34.3583Z" fill="#478B45"/>
<path d="M199.335 44.3423V26.1423H202.767V44.3423H199.335Z" fill="#478B45"/>
<path d="M205.671 44.3423V41.3263H208.063V29.1583H205.671V26.1423H213.159C215.603 26.1423 217.457 26.7663 218.723 28.0143C220.005 29.245 220.647 31.0823 220.647 33.5263V36.9583C220.647 39.4023 220.005 41.2483 218.723 42.4963C217.457 43.727 215.603 44.3423 213.159 44.3423H205.671ZM211.495 41.2223H213.211C214.597 41.2223 215.611 40.8583 216.253 40.1303C216.894 39.4023 217.215 38.3796 217.215 37.0623V33.4223C217.215 32.0876 216.894 31.065 216.253 30.3543C215.611 29.6263 214.597 29.2623 213.211 29.2623H211.495V41.2223Z" fill="#478B45"/>
<path d="M229.799 44.7063C228.551 44.7063 227.416 44.429 226.393 43.8743C225.388 43.3023 224.582 42.479 223.975 41.4043C223.386 40.3123 223.091 38.9863 223.091 37.4263V33.0583C223.091 30.7183 223.75 28.9243 225.067 27.6763C226.384 26.411 228.17 25.7783 230.423 25.7783C232.659 25.7783 234.384 26.3763 235.597 27.5723C236.828 28.751 237.443 30.3543 237.443 32.3823V32.4863H234.063V32.2783C234.063 31.637 233.924 31.0563 233.647 30.5363C233.387 30.0163 232.988 29.609 232.451 29.3143C231.914 29.0023 231.238 28.8463 230.423 28.8463C229.21 28.8463 228.256 29.219 227.563 29.9643C226.87 30.7096 226.523 31.7236 226.523 33.0063V37.4783C226.523 38.7436 226.87 39.7663 227.563 40.5463C228.256 41.309 229.227 41.6903 230.475 41.6903C231.723 41.6903 232.633 41.361 233.205 40.7023C233.777 40.0436 234.063 39.2116 234.063 38.2063V37.9463H229.747V35.0343H237.443V44.3423H234.271V42.6003H233.803C233.682 42.895 233.482 43.207 233.205 43.5363C232.945 43.8656 232.546 44.143 232.009 44.3683C231.472 44.5936 230.735 44.7063 229.799 44.7063Z" fill="#478B45"/>
<path d="M240.722 44.3423V26.1423H252.422V29.2623H244.154V33.6043H251.694V36.7243H244.154V41.2223H252.578V44.3423H240.722Z" fill="#478B45"/>
</svg>
